<?xml version="1.0" encoding="utf-8"?>
<!-- Generator: Adobe Illustrator 16.0.0, SVG Export Plug-In . SVG Version: 6.00 Build 0)  -->
<!DOCTYPE svg PUBLIC "-//W3C//DTD SVG 1.1//EN" "http://www.w3.org/Graphics/SVG/1.1/DTD/svg11.dtd">
<svg version="1.1" id="图层_1" xmlns="http://www.w3.org/2000/svg" xmlns:xlink="http://www.w3.org/1999/xlink" x="0px" y="0px"
	 width="102px" height="102px" viewBox="0 0 102 102" enable-background="new 0 0 102 102" xml:space="preserve">
<g>
	<path fill="#E0E0E0" d="M17.519,0h-4.995c-0.553,0-1,0.448-1,1s0.447,1,1,1h4.995c0.553,0,1-0.448,1-1S18.071,0,17.519,0z"/>
	<path fill="#E0E0E0" d="M24.502,100h-4.996c-0.553,0-1,0.447-1,1s0.447,1,1,1h4.996c0.553,0,1-0.447,1-1S25.055,100,24.502,100z"/>
	<path fill="#E0E0E0" d="M7.527,0H7C5.237,0,3.553,0.658,2.257,1.852C1.851,2.226,1.825,2.858,2.199,3.265
		c0.197,0.214,0.466,0.322,0.735,0.322c0.242,0,0.485-0.087,0.678-0.265C4.537,2.47,5.741,2,7,2h0.527c0.553,0,1-0.448,1-1
		S8.08,0,7.527,0z"/>
	<path fill="#E0E0E0" d="M4.992,99.58c-1.289-0.565-2.284-1.652-2.732-2.981c-0.177-0.522-0.737-0.807-1.267-0.628
		c-0.523,0.176-0.805,0.743-0.628,1.267c0.627,1.861,2.02,3.383,3.822,4.175c0.131,0.057,0.268,0.084,0.401,0.084
		c0.385,0,0.752-0.223,0.917-0.598C5.728,100.393,5.497,99.803,4.992,99.58z"/>
	<path fill="#E0E0E0" d="M14.511,100H9.516c-0.553,0-1,0.447-1,1s0.447,1,1,1h4.995c0.553,0,1-0.447,1-1S15.063,100,14.511,100z"/>
	<path fill="#E0E0E0" d="M37.5,0h-4.995c-0.553,0-1,0.448-1,1s0.447,1,1,1H37.5c0.553,0,1-0.448,1-1S38.053,0,37.5,0z"/>
	<path fill="#E0E0E0" d="M27.509,0h-4.995c-0.553,0-1,0.448-1,1s0.447,1,1,1h4.995c0.553,0,1-0.448,1-1S28.062,0,27.509,0z"/>
	<path fill="#E0E0E0" d="M44.483,100h-4.995c-0.553,0-1,0.447-1,1s0.447,1,1,1h4.995c0.553,0,1-0.447,1-1S45.036,100,44.483,100z"/>
	<path fill="#E0E0E0" d="M34.492,100h-4.995c-0.553,0-1,0.447-1,1s0.447,1,1,1h4.995c0.553,0,1-0.447,1-1S35.045,100,34.492,100z"/>
	<path fill="#E0E0E0" d="M1,82.966c0.553,0,1-0.447,1-1v-4.995c0-0.553-0.447-1-1-1s-1,0.447-1,1v4.995
		C0,82.519,0.447,82.966,1,82.966z"/>
	<path fill="#E0E0E0" d="M1,33.012c0.553,0,1-0.448,1-1v-4.996c0-0.552-0.447-1-1-1s-1,0.448-1,1v4.996
		C0,32.564,0.447,33.012,1,33.012z"/>
	<path fill="#E0E0E0" d="M1,23.021c0.553,0,1-0.448,1-1v-4.995c0-0.552-0.447-1-1-1s-1,0.448-1,1v4.995
		C0,22.573,0.447,23.021,1,23.021z"/>
	<path fill="#E0E0E0" d="M1,43.003c0.553,0,1-0.448,1-1v-4.996c0-0.552-0.447-1-1-1s-1,0.448-1,1v4.996
		C0,42.555,0.447,43.003,1,43.003z"/>
	<path fill="#E0E0E0" d="M1,13.03c0.553,0,1-0.448,1-1V7.035c0-0.552-0.447-1-1-1s-1,0.448-1,1v4.996C0,12.583,0.447,13.03,1,13.03z
		"/>
	<path fill="#E0E0E0" d="M1,72.976c0.553,0,1-0.447,1-1V66.98c0-0.553-0.447-1-1-1s-1,0.447-1,1v4.995
		C0,72.528,0.447,72.976,1,72.976z"/>
	<path fill="#E0E0E0" d="M47.491,0h-4.996c-0.553,0-1,0.448-1,1s0.447,1,1,1h4.996c0.553,0,1-0.448,1-1S48.044,0,47.491,0z"/>
	<path fill="#E0E0E0" d="M2,91.957v-4.995c0-0.553-0.447-1-1-1s-1,0.447-1,1v4.995c0,0.553,0.447,1,1,1S2,92.51,2,91.957z"/>
	<path fill="#E0E0E0" d="M1,62.984c0.553,0,1-0.448,1-1v-4.995c0-0.552-0.447-1-1-1s-1,0.448-1,1v4.995
		C0,62.537,0.447,62.984,1,62.984z"/>
	<path fill="#E0E0E0" d="M1,52.994c0.553,0,1-0.448,1-1v-4.995c0-0.552-0.447-1-1-1s-1,0.448-1,1v4.995
		C0,52.546,0.447,52.994,1,52.994z"/>
	<path fill="#E0E0E0" d="M101,63.958c-0.553,0-1,0.447-1,1v4.995c0,0.553,0.447,1,1,1s1-0.447,1-1v-4.995
		C102,64.405,101.553,63.958,101,63.958z"/>
	<path fill="#E0E0E0" d="M54.475,100h-4.996c-0.553,0-1,0.447-1,1s0.447,1,1,1h4.996c0.553,0,1-0.447,1-1S55.027,100,54.475,100z"/>
	<path fill="#E0E0E0" d="M101,53.967c-0.553,0-1,0.448-1,1v4.995c0,0.552,0.447,1,1,1s1-0.448,1-1v-4.995
		C102,54.415,101.553,53.967,101,53.967z"/>
	<path fill="#E0E0E0" d="M101,83.939c-0.553,0-1,0.447-1,1v4.995c0,0.553,0.447,1,1,1s1-0.447,1-1v-4.995
		C102,84.387,101.553,83.939,101,83.939z"/>
	<path fill="#E0E0E0" d="M101,43.976c-0.553,0-1,0.448-1,1v4.995c0,0.552,0.447,1,1,1s1-0.448,1-1v-4.995
		C102,44.424,101.553,43.976,101,43.976z"/>
	<path fill="#E0E0E0" d="M101,73.948c-0.553,0-1,0.447-1,1v4.995c0,0.553,0.447,1,1,1s1-0.447,1-1v-4.995
		C102,74.396,101.553,73.948,101,73.948z"/>
	<path fill="#E0E0E0" d="M101.622,4.724c-0.18-0.522-0.747-0.802-1.271-0.621c-0.522,0.179-0.801,0.748-0.622,1.271
		C99.909,5.896,100,6.443,100,7v3.008c0,0.552,0.447,1,1,1s1-0.448,1-1V7C102,6.222,101.873,5.456,101.622,4.724z"/>
	<path fill="#E0E0E0" d="M101,14.003c-0.553,0-1,0.448-1,1v4.995c0,0.552,0.447,1,1,1s1-0.448,1-1v-4.995
		C102,14.451,101.553,14.003,101,14.003z"/>
	<path fill="#E0E0E0" d="M101,33.985c-0.553,0-1,0.448-1,1v4.996c0,0.552,0.447,1,1,1s1-0.448,1-1v-4.996
		C102,34.433,101.553,33.985,101,33.985z"/>
	<path fill="#E0E0E0" d="M101,23.994c-0.553,0-1,0.448-1,1v4.996c0,0.552,0.447,1,1,1s1-0.448,1-1v-4.996
		C102,24.442,101.553,23.994,101,23.994z"/>
	<path fill="#E0E0E0" d="M101,93.965c-0.553,0-1,0.482-1,1.035c0,1.403-0.596,2.751-1.635,3.697
		c-0.408,0.372-0.438,1.004-0.065,1.413c0.197,0.216,0.468,0.326,0.739,0.326c0.24,0,0.481-0.086,0.674-0.261
		C101.166,98.852,102,96.965,102,95v-0.07C102,94.377,101.553,93.965,101,93.965z"/>
	<path fill="#E0E0E0" d="M64.465,100H59.47c-0.553,0-1,0.447-1,1s0.447,1,1,1h4.995c0.553,0,1-0.447,1-1S65.018,100,64.465,100z"/>
	<path fill="#E0E0E0" d="M74.456,100H69.46c-0.553,0-1,0.447-1,1s0.447,1,1,1h4.996c0.553,0,1-0.447,1-1S75.009,100,74.456,100z"/>
	<path fill="#E0E0E0" d="M67.473,0h-4.995c-0.553,0-1,0.448-1,1s0.447,1,1,1h4.995c0.553,0,1-0.448,1-1S68.025,0,67.473,0z"/>
	<path fill="#E0E0E0" d="M57.481,0h-4.995c-0.553,0-1,0.448-1,1s0.447,1,1,1h4.995c0.553,0,1-0.448,1-1S58.034,0,57.481,0z"/>
	<path fill="#E0E0E0" d="M77.464,0h-4.996c-0.553,0-1,0.448-1,1s0.447,1,1,1h4.996c0.553,0,1-0.448,1-1S78.017,0,77.464,0z"/>
	<path fill="#E0E0E0" d="M87.454,0h-4.995c-0.553,0-1,0.448-1,1s0.447,1,1,1h4.995c0.553,0,1-0.448,1-1S88.007,0,87.454,0z"/>
	<path fill="#E0E0E0" d="M98.296,1.886c0.219-0.507-0.015-1.096-0.521-1.314C96.896,0.192,95.962,0,95,0h-2.55c-0.553,0-1,0.448-1,1
		s0.447,1,1,1H95c0.688,0,1.354,0.137,1.981,0.408c0.129,0.056,0.264,0.083,0.396,0.083C97.765,2.49,98.133,2.264,98.296,1.886z"/>
	<path fill="#E0E0E0" d="M94.438,100h-4.995c-0.553,0-1,0.447-1,1s0.447,1,1,1h4.995c0.553,0,1-0.447,1-1S94.99,100,94.438,100z"/>
	<path fill="#E0E0E0" d="M84.446,100h-4.995c-0.553,0-1,0.447-1,1s0.447,1,1,1h4.995c0.553,0,1-0.447,1-1S84.999,100,84.446,100z"/>
</g>
<g>
	<path fill="#E0E0E0" d="M69.395,40.764h-2.858c-0.037,0-0.222-1.545-0.235-1.651c-0.117-0.808-0.165-1.621-0.394-2.405
		c-0.195-0.678-0.303-1.213-0.851-1.705c-0.519-0.466-1.2-0.735-1.898-0.735c-3.005,0-6.011,0-9.016,0c-2.08,0-4.164-0.035-6.244,0
		c-0.885,0.015-1.799,0.088-2.364,0.876c-1.134,1.581-1.348,3.809-1.865,5.62h-3.378c0-0.78-0.779-1.559-1.56-1.559h-2.858
		c-0.779,0-1.559,0.779-1.559,1.559h-0.779c-1.559,0-2.858,1.299-2.858,3.118V63.89c0,1.56,1.3,2.858,2.858,2.858h35.599
		c1.559,0,2.858-1.299,2.858-2.858V43.882C72.253,42.063,70.953,40.764,69.395,40.764z M37.434,45.701
		c-1.299,0-2.079-0.78-2.079-1.819c0-1.04,1.039-2.079,2.079-2.079c1.039,0,2.078,0.779,2.078,2.079
		C39.512,44.921,38.473,45.701,37.434,45.701L37.434,45.701z M55.362,64.15c-6.235,0-11.173-4.938-11.173-11.174
		c0-6.237,4.938-11.173,11.173-11.173c6.236,0,11.174,4.937,11.174,11.173C66.536,59.212,61.599,64.15,55.362,64.15L55.362,64.15z
		 M55.362,44.921c-4.417,0-8.056,3.638-8.056,8.056c0,4.417,3.639,8.055,8.056,8.055s8.055-3.638,8.055-8.055
		C63.417,48.559,59.779,44.921,55.362,44.921L55.362,44.921z M55.362,44.921"/>
</g>
</svg>
