<?xml version="1.0" encoding="utf-8"?>
<!-- Generator: Adobe Illustrator 16.0.0, SVG Export Plug-In . SVG Version: 6.00 Build 0)  -->
<!DOCTYPE svg PUBLIC "-//W3C//DTD SVG 1.1//EN" "http://www.w3.org/Graphics/SVG/1.1/DTD/svg11.dtd">
<svg version="1.1" id="图层_1" xmlns="http://www.w3.org/2000/svg" xmlns:xlink="http://www.w3.org/1999/xlink" x="0px" y="0px"
	 width="18.426px" height="28px" viewBox="0 0 18.426 28" enable-background="new 0 0 18.426 28" xml:space="preserve">
<g>
	<g>
		<path fill="#FFE258" d="M9.213,22.455c-0.784,0-1.426,0.645-1.426,1.426c0,0.789,0.642,1.432,1.426,1.432s1.426-0.643,1.426-1.432
			C10.639,23.1,9.997,22.455,9.213,22.455L9.213,22.455z M9.213,22.455"/>
		<path fill="#FFE258" d="M16.27,0H2.156C0.967,0,0,0.966,0,2.154v23.689C0,27.035,0.967,28,2.156,28H16.27
			c1.189,0,2.156-0.965,2.156-2.156V2.154C18.426,0.966,17.459,0,16.27,0L16.27,0z M2.156,1.438H16.27
			c0.396,0,0.72,0.318,0.72,0.716v17.75H1.437V2.154C1.437,1.757,1.76,1.438,2.156,1.438L2.156,1.438z M16.27,26.566H2.156
			c-0.396,0-0.72-0.322-0.72-0.723v-4.379h15.553v4.379C16.989,26.244,16.666,26.566,16.27,26.566L16.27,26.566z M16.27,26.566"/>
	</g>
</g>
</svg>
