<?xml version="1.0" encoding="utf-8"?>
<!-- Generator: Adobe Illustrator 16.0.0, SVG Export Plug-In . SVG Version: 6.00 Build 0)  -->
<!DOCTYPE svg PUBLIC "-//W3C//DTD SVG 1.1//EN" "http://www.w3.org/Graphics/SVG/1.1/DTD/svg11.dtd">
<svg version="1.1" id="图层_1" xmlns="http://www.w3.org/2000/svg" xmlns:xlink="http://www.w3.org/1999/xlink" x="0px" y="0px"
	 width="24.003px" height="27px" viewBox="0 0 24.003 27" enable-background="new 0 0 24.003 27" xml:space="preserve">
<g>
	<g>
		<path fill="#FFE258" d="M19.333,9.64H5.335V7.07c0-3.229,2.832-5.764,6.457-5.786c3.541,0.018,6.209,2.496,6.209,5.786v1.287
			c0,0.354,0.297,0.642,0.666,0.642c0.371,0,0.667-0.286,0.667-0.642V7.07c0-4.007-3.218-7.033-7.5-7.07h-0.083
			C7.4,0.037,4.001,3.131,4.001,7.07v2.637C1.746,10.023,0,11.885,0,14.142v8.356C0,24.982,2.092,27,4.668,27h14.666
			c2.576,0,4.669-2.018,4.669-4.502v-8.356C24,11.658,21.904,9.64,19.333,9.64L19.333,9.64z M22.666,22.498
			c0,1.771-1.494,3.213-3.333,3.213H4.668c-1.838,0-3.332-1.442-3.332-3.213V14.14c0-1.772,1.495-3.212,3.332-3.212h14.666
			c1.841,0,3.334,1.441,3.334,3.212v8.358H22.666z M11.998,13.498c-2.203,0-3.999,1.73-3.999,3.855c0,1.912,1.454,3.492,3.347,3.794
			c0,0.022-0.013,0.041-0.013,0.063v1.93c0,0.357,0.298,0.644,0.665,0.644c0.37,0,0.666-0.286,0.666-0.644v-1.93
			c0-0.022-0.01-0.041-0.012-0.063c1.894-0.303,3.347-1.883,3.347-3.795C16,15.229,14.206,13.498,11.998,13.498L11.998,13.498z
			 M11.998,19.93c-1.468,0-2.664-1.157-2.664-2.572c0-1.42,1.198-2.57,2.664-2.57c1.47,0,2.665,1.156,2.665,2.57
			C14.667,18.772,13.47,19.93,11.998,19.93L11.998,19.93z M11.998,19.93"/>
	</g>
</g>
</svg>
